<?xml version="1.0" encoding="UTF-8" standalone="no"?>
<!-- Created with Inkscape (http://www.inkscape.org/) -->

<svg
   xmlns:dc="http://purl.org/dc/elements/1.1/"
   xmlns:cc="http://creativecommons.org/ns#"
   xmlns:rdf="http://www.w3.org/1999/02/22-rdf-syntax-ns#"
   xmlns:svg="http://www.w3.org/2000/svg"
   xmlns="http://www.w3.org/2000/svg"
   xmlns:sodipodi="http://sodipodi.sourceforge.net/DTD/sodipodi-0.dtd"
   xmlns:inkscape="http://www.inkscape.org/namespaces/inkscape"
   width="500"
   height="227.64301"
   viewBox="0 0 500.00001 227.64297"
   id="svg4203"
   version="1.1"
   inkscape:version="0.91 r13725"
   sodipodi:docname="LevelsOfBeauty_koukerot.svg">
  <defs
     id="defs4205" />
  <sodipodi:namedview
     id="base"
     pagecolor="#ffffff"
     bordercolor="#666666"
     borderopacity="1.0"
     inkscape:pageopacity="0.0"
     inkscape:pageshadow="2"
     inkscape:zoom="1.4024136"
     inkscape:cx="236.41898"
     inkscape:cy="26.029068"
     inkscape:document-units="px"
     inkscape:current-layer="layer3"
     showgrid="false"
     inkscape:window-width="1441"
     inkscape:window-height="780"
     inkscape:window-x="3209"
     inkscape:window-y="1343"
     inkscape:window-maximized="0"
     units="px" />
  <metadata
     id="metadata4208">
    <rdf:RDF>
      <cc:Work
         rdf:about="">
        <dc:format>image/svg+xml</dc:format>
        <dc:type
           rdf:resource="http://purl.org/dc/dcmitype/StillImage" />
        <dc:title></dc:title>
      </cc:Work>
    </rdf:RDF>
  </metadata>
  <g
     inkscape:groupmode="layer"
     id="layer3"
     inkscape:label="work"
     transform="translate(0,-824.71922)">
    <g
       id="g4989"
       transform="matrix(1.3598706,-1.4921676,1.4921676,1.3598706,-817.93447,1262.3836)"
       inkscape:export-xdpi="90"
       inkscape:export-ydpi="90">
      <path
         d="m 466.01096,235.42371 c 0.1171,0.1216 0.2536,0.2625 0.4048,0.436 0.1098,0.1216 0.2284,0.2492 0.353,0.3841 l 0.099,0.1023 c 0.1127,0.1379 0.2358,0.2773 0.3633,0.4212 l 0.1824,0.2076 c 0.3604,0.4241 0.7519,0.9017 1.1434,1.4192 l 0.5695,0.7845 c 0.088,0.1394 0.1809,0.2773 0.2743,0.4153 0.1068,0.1557 0.2151,0.3114 0.3307,0.5101 l 0.2714,0.433 c 0.096,0.1765 0.1958,0.353 0.3011,0.5324 0.1319,0.2254 0.2521,0.4642 0.3752,0.7044 l 0.1453,0.2803 c 0.301,0.6066 0.5917,1.2902 0.9135,2.1474 0.2417,0.654 0.4627,1.3999 0.6762,2.2882 0.1676,0.6748 0.2981,1.4207 0.4108,2.355 0.088,0.6822 0.1365,1.4296 0.1557,2.3668 0.022,0.6644 -0.012,1.3154 -0.044,1.9487 l -0.013,0.2906 c -0.062,0.7371 -0.1305,1.4474 -0.2298,2.1237 -0.043,0.3247 -0.091,0.6361 -0.1468,0.952 -0.049,0.3011 -0.098,0.5873 -0.1558,0.8676 l -0.1809,0.9164 c -0.044,0.2017 -0.086,0.393 -0.1201,0.5695 -0.041,0.2121 -0.086,0.4019 -0.1261,0.5665 -0.041,0.1706 -0.076,0.3203 -0.096,0.4316 l -0.6065,3.1824 2.2319,-1.8077 0.6347,-0.5294 c 0.1572,-0.1335 0.3307,-0.2892 0.4938,-0.4627 0.1513,-0.1528 0.3115,-0.3248 0.5384,-0.571 0.1453,-0.1557 0.2817,-0.3248 0.4256,-0.5057 l 0.1616,-0.2017 c 0.175,-0.2061 0.3352,-0.4345 0.4998,-0.6762 l 0.1364,-0.1987 c 0.1913,-0.2655 0.3619,-0.5561 0.5398,-0.8631 l 0.098,-0.1661 c 0.3975,-0.6822 0.7667,-1.4815 1.1449,-2.4795 0.264,-0.7712 0.5887,-1.8034 0.7593,-2.9275 0.1898,-1.1418 0.2639,-2.2496 0.2239,-3.2818 -0.039,-1.2086 -0.1869,-2.352 -0.439,-3.3945 -0.2847,-1.1834 -0.6614,-2.2749 -1.1152,-3.2433 -0.4879,-1.0381 -1.0588,-1.9976 -1.6787,-2.8281 -0.1157,-0.1631 -0.2417,-0.3188 -0.3678,-0.4715 l -0.1349,-0.1676 c -0.1765,-0.2195 -0.3545,-0.4316 -0.528,-0.608 -0.1705,-0.1839 -0.3381,-0.3648 -0.5442,-0.574 l -1.6343,-1.4014 c -0.3692,-0.2625 -0.7251,-0.5116 -1.1181,-0.7489 l -0.3233,-0.1853 c -0.2447,-0.1439 -0.482,-0.2788 -0.7282,-0.393 l -0.2966,-0.1409 c -0.2358,-0.1142 -0.4597,-0.221 -0.6851,-0.304 l -0.2536,-0.096 c -0.2106,-0.08 -0.4108,-0.1557 -0.697,-0.2492 -0.2521,-0.074 -0.4834,-0.1408 -0.8319,-0.2298 l -0.5072,-0.1112 c -0.1869,-0.036 -0.3456,-0.061 -0.4731,-0.08 -0.2699,-0.042 -0.4152,-0.056 -0.4152,-0.056 l -2.7079,-0.2699 2.0524,2.2794 c 0.079,0.09 0.1765,0.1913 0.2892,0.3084"
         style="display:inline;fill:#2b2b2a;fill-opacity:1;fill-rule:nonzero;stroke:none"
         id="path4164-8"
         inkscape:connector-curvature="0" />
      <path
         d="m 522.25346,293.0557 z m -2.7821,-5.62489 c -0.8438,-0.7222 -1.7766,-1.3614 -2.7776,-1.9042 -0.9744,-0.519 -2.0421,-0.955 -3.1751,-1.2931 -0.9936,-0.3011 -2.0791,-0.5087 -3.3204,-0.6392 -0.955,-0.1023 -1.9798,-0.1112 -3.2566,-0.024 -1.1478,0.1097 -2.1088,0.2684 -2.9185,0.4805 -0.832,0.1987 -1.6787,0.4731 -2.524,0.8156 -0.7653,0.3144 -1.44,0.6407 -1.9813,0.9536 -0.5591,0.304 -1.0233,0.6213 -1.4548,0.9179 -0.3337,0.2344 -0.5947,0.4509 -0.8868,0.6941 -0.2047,0.172 -0.3115,0.2714 -0.3115,0.2714 l -1.999,1.8537 3.0964,-0.036 c 0.1617,0 0.3693,-0.013 0.617,-0.025 l 0.4004,-0.019 c 0.2076,0 0.4345,-0.016 0.6762,-0.028 0.2625,-0.013 0.5472,-0.028 0.8572,-0.034 l 0.3722,-0.015 c 0.1646,-0.01 0.3337,-0.013 0.525,-0.015 0.1557,0.015 0.2981,-0.01 0.4523,-0.01 0.169,-0.01 0.3426,-0.012 0.5605,-0.01 0.6793,0 1.4104,-0.01 2.1919,0.027 0.6985,0.015 1.4237,0.076 2.1607,0.1364 l 0.1602,0.013 c 0.7859,0.092 1.5882,0.1838 2.3846,0.3366 0.7252,0.1409 1.566,0.3114 2.3668,0.5576 0.8438,0.2506 1.5764,0.5116 2.2334,0.7919 0.7148,0.3114 1.4059,0.657 2.0421,1.0233 0.5679,0.3351 1.1552,0.73109 1.7469,1.17299 l 0.347,0.2847 c 0.1513,0.1216 0.304,0.2403 0.4598,0.39 l 0.7667,0.7104 c 0.1186,0.1023 0.2179,0.2165 0.3173,0.3263 0.1038,0.1127 0.2061,0.2254 0.2862,0.3025 0.1023,0.1068 0.1928,0.2165 0.2833,0.3233 0.099,0.1156 0.1957,0.2298 0.2654,0.3055 0.084,0.098 0.1602,0.1957 0.2343,0.2906 0.091,0.1172 0.1795,0.2299 0.267,0.3322 0.076,0.091 0.1379,0.178 0.1972,0.261 0.067,0.092 0.1305,0.1809 0.1928,0.2595 0.1498,0.1913 0.2714,0.3723 0.3737,0.522 l 2.1103,2.8933 0.1957,-2.871 0.033,-0.5324 c 0.013,-0.264 0.03,-0.6065 -0.01,-0.9832 -0.021,-0.4968 -0.1038,-1.0826 -0.258,-1.827 -0.08,-0.3278 -0.1735,-0.6792 -0.2936,-1.0589 -0.049,-0.1498 -0.1053,-0.2996 -0.1632,-0.4538 l -0.5576,-1.29609 c -0.074,-0.1528 -0.1586,-0.2996 -0.2446,-0.4508 l -0.079,-0.1379 c -0.1913,-0.3604 -0.4257,-0.703 -0.6689,-1.0544 l -0.1497,-0.2151 c -0.6466,-0.8631 -1.3674,-1.6416 -2.1459,-2.3164"
         style="display:inline;fill:#2b2b2a;fill-opacity:1;fill-rule:nonzero;stroke:none"
         id="path4168-8"
         inkscape:connector-curvature="0" />
      <path
         sodipodi:nodetypes="sccccccccccccccccccccccccccccccccccccccccccccccccccccccccccccccccccccccccccccccccccccccccccccccccccccccccccccccccccccccccccccccccccccccccccccccccccccccccccccccccccccccccccccccccccccccccccccccccccccccccccccccccccccccccccccccccccccccccccccccccccccccccccccccccccccccccccccccccccccccccccccccccccscccccccccccccccccccccccccccsccccccccccccsccccccccccccccccccccccccccccccccccccccccccccccccccccccccccccccccccccccccccccccccccccccccccccccccccccccccccccccccccscccccccccccccccccccccccccccccccccccccccccccccccccccccccccccccccccccccccccccccccccccccccccccccccccccccccccccccccccscccccccccccccccccccccccccccccccccccccccccccccccccccccccccccccccccccccccccccccccccccccccccccccccccccccccccccccccccccccccccccccccccccccccccccccccccccccccccccccccccccccccccccccccccccccccccc"
         inkscape:connector-curvature="0"
         id="path4180-0"
         d="m 406.80859,193.13672 c -1.50119,0.0247 -3.03444,0.12383 -4.58789,0.29883 -5.8592,0.6481 -11.60187,2.39718 -16.60547,5.05468 -2.5804,1.3733 -4.92329,2.93895 -6.96679,4.65625 -4.66435,3.83609 -7.25543,7.6031 -9.31055,12.14064 l -0.11914,0.26758 c -0.5606,1.2323 -0.98693,2.46087 -1.30273,3.42187 -0.3218,1.0737 -0.64537,2.23047 -0.85157,3.38867 -0.433,2.266 -0.59601,4.4745 -0.48633,6.5625 0.10091,2.0228 0.42655,3.99242 0.96485,5.85352 0.5043,1.7455 1.18122,3.36792 2.01172,4.82422 1.74844,3.07065 4.00264,5.25826 5.68945,6.49414 0.1334,0.1038 0.26894,0.19706 0.40234,0.28906 l 0.65625,0.45703 c 0.1187,0.082 0.23987,0.15296 0.35547,0.22266 l 0.41797,0.25586 c 0.1928,0.1186 0.36988,0.22492 0.55078,0.32422 l 1.02735,0.5332 1.07812,-1.79883 -0.94336,-0.63476 c -0.1172,-0.083 -0.2424,-0.17986 -0.3789,-0.28516 l -0.44141,-0.33203 c -0.071,-0.053 -0.148,-0.10958 -0.2207,-0.17188 l -0.61524,-0.52343 c -0.086,-0.073 -0.17526,-0.14542 -0.25976,-0.22852 -4.70312,-4.36192 -5.68671,-9.65905 -5.85359,-10.30661 -0.344,-1.6165 -0.49999,-3.31001 -0.46289,-5.07031 0,-0.2728 0.0152,-0.54497 0.0332,-0.82227 l 0.0293,-0.5039 c 0.027,-0.3723 0.071,-0.7469 0.11524,-1.125 l 0.0273,-0.24024 c 0.1261,-0.8482 0.28769,-1.84571 0.55469,-2.84961 1.86254,-6.06304 2.93875,-7.63273 5.7207,-11.20896 2.8221,-3.4643 6.66442,-6.4589 11.10742,-8.6582 2.2824,-1.12261 4.65845,-2.03869 7.03125,-2.70899 l 0.69531,-0.18164 c 0.3944,-0.1068 0.79105,-0.21133 1.18555,-0.29883 l 2.11133,-0.43945 c 0.5665,-0.1053 1.13237,-0.21096 1.72265,-0.28516 l 1.95313,-0.24023 c 1.4207,-0.1528 2.84453,-0.19565 3.89453,-0.21485 l 0.46094,0.01 c 0.5101,0 1.02141,0.0112 1.50781,0.0312 l 0.64844,0.0312 c 0.439,0.021 0.87624,0.0428 1.33594,0.0937 2.7909,0.2491 5.36554,0.75932 7.65234,1.51563 l 1.83203,0.65234 2.61328,1.20117 1.25,0.72656 c 0.3633,0.2195 0.72922,0.43537 1.10742,0.73047 1.9931,1.4088 3.86987,3.15784 5.57227,5.18946 l 1.63281,2.10546 c 0.2388,0.3292 0.47879,0.65581 0.69532,0.97461 l 1.04882,1.61524 0.97852,1.6914 c 1.1671,2.1325 2.22266,4.47454 3.13476,6.95703 0.5383,1.5067 1.02009,3.14179 1.45899,4.92579 -2.9022,-1.0633 -6.00278,-1.75877 -9.17188,-2.03907 -4.8716,-0.433 -9.75004,0.0404 -14.49414,1.40625 -4.7218,1.3525 -9.14516,3.52115 -13.16406,6.46485 l -1.46289,1.125 -1.37109,1.15625 -1.78907,1.68359 c -0.307,0.3055 -0.61242,0.61101 -0.88672,0.91211 -1.69209,1.8136 -3.20825,3.79377 -4.50585,5.88477 -1.2962,2.1044 -2.37563,4.35375 -3.20313,6.68945 -0.8127,2.306 -1.36664,4.74302 -1.64844,7.26562 -0.1038,1.17 -0.19238,2.432 -0.14648,3.6836 -0.001,0.4568 0.0314,0.91189 0.0644,1.36719 l 0.0352,0.52539 c 0.019,0.2046 0.0434,0.40868 0.0684,0.61328 l 0.0469,0.38867 c 0.036,0.2981 0.0699,0.5962 0.125,0.875 l 0.16016,0.9082 c 0.041,0.2076 0.0897,0.41304 0.13867,0.61914 l 0.0605,0.26563 c 0.092,0.4404 0.2182,0.87459 0.3457,1.30469 l 0.15625,0.54296 c 0.062,0.1957 0.13102,0.38728 0.19922,0.58008 l 1.20117,2.87891 1.64063,2.82617 c 0.065,0.096 0.13245,0.18934 0.28515,0.39844 l 0.54297,0.74219 c 0.1261,0.1646 0.25863,0.32567 0.39063,0.48437 l 1.19922,1.36328 c 0.076,0.083 0.15164,0.16686 0.24804,0.25586 l 0.70313,0.66992 c 0.1617,0.1468 0.32518,0.28353 0.48828,0.41992 l 0.20703,0.17383 c 0.1869,0.1646 0.38378,0.31414 0.58398,0.46094 l 0.96094,0.67969 c 0.5161,0.3544 1.05974,0.66103 1.64844,0.99023 l 0.79101,0.39453 c 0.1943,0.098 0.39115,0.18113 0.58985,0.26563 l 0.28515,0.12305 c 1.1611,0.4834 2.33845,0.85964 3.49805,1.11914 1.1479,0.2536 2.34257,0.42471 3.5586,0.50781 1.12848,0.068 2.28164,0.054 3.52734,-0.041 1.0648,-0.092 2.18008,-0.26275 3.42578,-0.53125 1.13,-0.261 2.22417,-0.58138 3.26367,-0.95508 1.2353,-0.45819 2.21239,-0.87744 3.05469,-1.31054 1.8567,-0.9164 3.69586,-2.10233 5.44726,-3.51563 0.2847,-0.2195 0.55387,-0.45756 0.82227,-0.69336 l 1.54297,-1.44921 c 0.3352,-0.3307 0.63504,-0.66686 0.93164,-1.00196 l 0.36523,-0.42578 c 0.2803,-0.3396 0.55849,-0.67798 0.80469,-1.01758 0.6555,-0.8691 1.23716,-1.75878 1.72656,-2.64258 0.1231,-0.2195 0.21934,-0.42517 0.33204,-0.63867 0.2417,-0.261 0.4834,-0.52385 0.7207,-0.81445 l 1.32031,-1.52539 c 0.2907,-0.3619 0.58035,-0.74372 0.87695,-1.13672 l 2.55079,-3.66016 1.6914,-2.91992 c 0.1305,-0.2284 0.26043,-0.4621 0.36133,-0.6875 l 0.42383,-0.87695 c 0.2743,-0.568 0.5565,-1.14836 0.8457,-1.78906 l 0.29492,-0.72852 c 0.2833,-0.6956 0.57026,-1.40281 0.84766,-2.16211 l 0.63672,-1.92969 c 0.132,-0.3944 0.26221,-0.79235 0.34961,-1.16015 1.1938,-4.2606 1.79244,-8.67002 1.83984,-13.13672 0.1038,0.091 0.22387,0.16786 0.32617,0.25976 l 2.05078,2.06641 0.97657,1.16211 c 0.1943,0.2402 0.37905,0.48819 0.56445,0.73437 l 0.33398,0.43946 c 1.1686,1.5987 2.17123,3.28315 2.98243,5.00195 0.8112,1.7277 1.4644,3.53701 1.9375,5.37891 0.8794,3.4153 1.19364,7.17573 0.93554,11.17383 -0.212,3.3308 -0.79264,6.86821 -1.77734,10.82031 -0.7444,3.0194 -1.71072,6.19955 -3.04102,10.00195 -1.0203,2.9051 -2.0899,5.66996 -3.125,8.34375 l -1.13867,2.94336 c -0.8275,2.1266 -1.62141,4.17036 -2.34961,6.13086 -1.1656,3.1053 -2.0674,5.80136 -2.74218,8.19336 -1.11971,0.2195 -2.18173,0.38689 -3.17383,0.49219 -1.7973,0.2016 -3.47046,0.19567 -4.97266,-0.0195 -1.5675,-0.224 -2.68844,-0.68421 -3.36914,-1.03711 l -0.78516,-0.45313 c -0.096,-0.059 -0.18928,-0.11434 -0.23828,-0.14844 l -0.34765,-0.26562 c -0.1498,-0.1127 -0.28393,-0.20919 -0.39063,-0.3086 l -0.61523,-0.57031 -1.48242,1.48633 0.57226,0.61133 c 0.1438,0.1542 0.32606,0.31369 0.53516,0.49609 l 0.32617,0.28711 c 0.1246,0.1038 0.26337,0.2033 0.41015,0.3086 l 0.89649,0.59179 c 1.1523,0.6911 2.55107,1.2209 4.04297,1.5293 1.6995,0.3574 3.60389,0.47662 5.65039,0.35352 0.6792,-0.036 1.39808,-0.10442 2.14258,-0.1875 -0.2136,0.98029 -0.38276,1.90579 -0.50586,2.77929 -0.3026,2.0346 -0.34913,3.94086 -0.14453,5.66406 0.1765,1.5171 0.57882,2.95785 1.20312,4.24805 l 0.46875,0.85742 c 0.091,0.1572 0.17723,0.30502 0.29883,0.47852 l 0.23437,0.32031 c 0.1617,0.2239 0.30341,0.41761 0.44141,0.57031 l 0.55859,0.62696 1.61329,-1.34375 -0.51172,-0.66211 c -0.088,-0.1142 -0.17359,-0.25537 -0.27149,-0.41406 l -0.21289,-0.33985 c -0.052,-0.086 -0.0976,-0.18185 -0.14648,-0.28125 l -0.39063,-0.8418 c -0.2847,-0.694 -0.64401,-1.8551 -0.72851,-3.4375 -0.082,-1.5185 0.0603,-3.18629 0.41797,-4.96289 0.2284,-1.1567 0.57225,-2.42814 0.97265,-3.74804 2.5849,-0.4656 5.53375,-1.16146 8.99805,-2.12696 2.0109,-0.5546 4.10756,-1.16608 6.28906,-1.80078 l 3.02539,-0.8789 c 2.7598,-0.8008 5.61577,-1.62683 8.60547,-2.39063 3.9151,-0.9965 7.16276,-1.68325 10.22656,-2.15625 4.0367,-0.6333 7.61184,-0.90004 10.92774,-0.80664 1.9398,0.052 3.81441,0.22879 5.57031,0.52539 1.8952,0.3218 3.73184,0.79902 5.46094,1.41602 1.787,0.6391 3.52717,1.45357 5.17187,2.42187 1.6357,0.9655 3.21644,2.12142 4.68164,3.41602 l 0.42188,0.38281 c 0.2269,0.2046 0.45342,0.407 0.66992,0.625 l 2.03125,2.16016 0.42773,0.54296 c 0.1587,0.2002 0.31655,0.40196 0.46485,0.59766 0.074,0.099 0.13238,0.21365 0.20508,0.31445 -4.4178,-0.3485 -8.85443,-0.14173 -13.16993,0.66797 -0.43,0.062 -0.85087,0.16092 -1.26757,0.26172 l -1.9668,0.46485 c -0.7475,0.2002 -1.4742,0.42353 -2.1875,0.64453 l -0.80664,0.25 c -0.6184,0.2165 -1.22265,0.44844 -1.81445,0.67382 l -0.89063,0.33594 c -0.2522,0.088 -0.4942,0.19649 -0.72852,0.30469 l -4.16601,2.02539 -2.77539,1.64453 c -0.4123,0.2581 -0.8129,0.50936 -1.2207,0.78516 l -1.57813,1.14062 c -0.3233,0.221 -0.61224,0.44751 -0.89844,0.66993 -0.2209,0.093 -0.43566,0.16918 -0.66406,0.27148 -0.9224,0.4123 -1.85698,0.91487 -2.76758,1.48437 -0.3663,0.2195 -0.71731,0.46188 -1.07031,0.70508 L 479.17578,328 c -0.3515,0.261 -0.70096,0.52239 -1.03906,0.80859 l -1.58789,1.42188 c -0.258,0.2491 -0.5186,0.49745 -0.75,0.74805 -1.5705,1.6372 -2.90936,3.36484 -3.97266,5.11914 -0.5175,0.8201 -1.00509,1.72617 -1.58789,2.95117 -0.4627,1.0084 -0.87697,2.06997 -1.23437,3.17187 -0.3737,1.213 -0.64228,2.30707 -0.82618,3.35547 -0.2061,1.2457 -0.32186,2.39066 -0.35156,3.50586 -0.027,1.2042 0.0357,2.40799 0.1836,3.58399 0.1602,1.1953 0.42666,2.39731 0.79296,3.57031 0.3604,1.1686 0.84918,2.32962 1.45118,3.44922 l 0.62304,1.07226 c 0.1216,0.2002 0.24259,0.40274 0.36719,0.57031 l 1.13672,1.51758 c 0.1097,0.1408 0.20457,0.24736 0.32617,0.38086 l 0.44727,0.49805 c 0.061,0.076 0.12334,0.14085 0.18554,0.19727 l 1.66016,1.56445 2.23047,1.69726 2.42187,1.42774 2.57227,1.14258 2.6582,0.84179 c 0.3159,0.091 0.63723,0.16091 0.95313,0.22461 l 1.47461,0.27735 c 0.436,0.073 0.87327,0.14408 1.29297,0.17968 l 0.94336,0.0957 2.78124,0.0859 c 2.5062,-0.055 4.98068,-0.3905 7.35938,-1 2.3921,-0.6169 4.73072,-1.49326 6.94922,-2.60546 2.1889,-1.1063 4.28941,-2.44489 6.22461,-3.95899 0.2166,-0.1601 0.43103,-0.33968 0.64453,-0.51758 l 0.83594,-0.70117 c 0.1543,-0.1335 0.29705,-0.26358 0.43945,-0.39258 l 2.2168,-2.13867 c 0.344,-0.3663 0.68188,-0.74098 1.02148,-1.11328 l 0.21289,-0.23437 c 3.2626,-3.72821 5.80851,-7.9445 7.57031,-12.5254 1.7766,-4.6017 2.6815,-9.41633 2.6875,-14.30273 0.01,-3.2121 -0.41489,-6.39526 -1.22461,-9.41016 1.7411,0.5977 3.33164,1.22845 4.80274,1.90625 2.3995,1.1389 4.63799,2.40242 6.65039,3.75782 2.1325,1.4296 4.13357,3.07824 5.94727,4.90234 1.876,1.8893 3.44742,3.91787 4.67382,6.04297 l 0.25586,0.43164 c 0.036,0.059 0.0647,0.12325 0.0957,0.18555 l 0.51367,1.04687 1.04687,2.63867 0.75782,2.76563 c 0.5443,2.3342 0.82121,4.9447 0.82421,7.7832 0.012,0.4256 -0.0104,0.85173 -0.0254,1.27735 l -0.0215,0.66015 c -0.031,0.5799 -0.0755,1.15988 -0.12109,1.73828 l -0.0176,0.21875 c -0.1157,1.0751 -0.28175,2.48919 -0.56055,3.89649 l -0.41406,1.93554 c -0.1202,0.5561 -0.27058,1.10274 -0.42188,1.64844 l -0.625,2.08789 c -0.1231,0.387 -0.26399,0.76874 -0.40039,1.14844 l -0.23633,0.66211 c -0.8853,2.3327 -2.00045,4.61987 -3.31445,6.79687 -5.17687,8.06611 -11.04779,12.39915 -18.29492,14.40625 -0.8127,0.2136 -1.88224,0.47798 -2.96484,0.64258 -0.9832,0.1735 -1.95617,0.24738 -2.82227,0.30078 l -0.24414,0.01 c -0.3915,0.01 -0.78236,0.0216 -1.13086,0.0156 l -0.54297,-0.0156 c -0.2743,-0.01 -0.54711,-0.011 -0.84961,-0.041 -3.30118,-0.0842 -6.02615,-1.14477 -8.67187,-2.46875 -1.4978,-0.8216 -2.65792,-1.70626 -3.48242,-2.44336 -0.3159,-0.2654 -0.59489,-0.54846 -0.86329,-0.81836 l -1.67968,-1.91796 c -0.076,-0.095 -0.14128,-0.18981 -0.20508,-0.28321 l -0.46485,-0.65625 c -0.056,-0.08 -0.10539,-0.15913 -0.15429,-0.23633 l -0.29688,-0.47851 c -0.089,-0.1408 -0.17035,-0.27212 -0.25195,-0.41602 l -0.53906,-0.97656 -1.88868,0.91406 0.44727,1.08789 c 0.074,0.1721 0.16668,0.35735 0.26758,0.56055 l 0.21094,0.42773 c 0.059,0.126 0.12216,0.25532 0.19336,0.38282 l 0.40039,0.70508 c 0.077,0.1364 0.1565,0.28048 0.25,0.42578 l 1.6582,2.30468 c 0.2951,0.3544 0.60481,0.7235 0.94141,1.0586 2.17254,2.16775 4.30339,3.72689 7.97656,5.31445 1.8048,0.703 3.73869,1.19776 5.74219,1.47656 1.1552,0.1646 2.35363,0.2461 3.58593,0.2461 0.9758,0 1.971,-0.052 2.98243,-0.1543 1.1864,-0.1038 2.36554,-0.3297 3.49414,-0.5625 1.40605,-0.35761 2.57764,-0.67481 3.7832,-1.09569 8.57879,-3.07334 13.6827,-8.62646 18.11319,-14.76947 3.0727,-4.7485 5.31296,-10.3141 6.47266,-16.0918 0.6214,-3.0727 0.93655,-6.07834 0.93945,-8.93164 0.01,-3.3248 -0.29771,-6.30267 -0.94141,-9.10547 l -0.58593,-2.23242 -1.24805,-3.46875 0.0117,-0.0332 -1.03906,-2.10743 c -0.068,-0.1394 -0.1373,-0.27819 -0.2129,-0.40429 l -0.2832,-0.47657 c -1.4533,-2.5122 -3.31229,-4.87174 -5.68359,-7.21484 -2.088,-2.0599 -4.41854,-3.91734 -6.92774,-5.52344 -2.3624,-1.5245 -4.89782,-2.87895 -7.54492,-4.03125 -2.4692,-1.0529 -5.08966,-1.94877 -7.81836,-2.66797 l -0.79492,-0.18359 c -0.258,-0.061 -0.52461,-0.11889 -0.78711,-0.17969 -0.8497,-1.6981 -1.8398,-3.30306 -2.9668,-4.78906 -0.2981,-0.3841 -0.61197,-0.76633 -0.92187,-1.14453 l -2.64258,-2.76367 c -0.2773,-0.2684 -0.56923,-0.52134 -0.86133,-0.77344 l -0.44531,-0.39258 c -3.5102,-3.009 -7.58867,-5.32079 -11.79297,-6.68359 -2.0376,-0.6703 -4.18316,-1.16938 -6.38086,-1.48828 -2.0035,-0.2847 -4.12092,-0.4331 -6.29492,-0.4375 l -0.01,0 c -3.8246,0 -7.6807,0.38573 -11.78711,1.17773 -3.1958,0.608 -6.55545,1.43592 -10.56835,2.60742 -4.3496,1.2709 -8.30431,2.61301 -12.12891,3.91211 -1.9679,0.6674 -3.85952,1.30919 -5.67774,1.89649 -2.52989,0.8215 -4.75041,1.47927 -6.79101,2.01757 0.6718,-1.8285 1.45192,-3.80257 2.39062,-6.01367 0.6199,-1.4711 1.29087,-2.99991 1.98047,-4.57031 l 5.31446,0.66992 -0.8086,6.83203 2.50586,-6.61914 0.84375,0.10352 c 0.5412,0.067 1.28643,0.15808 2.14063,0.17578 0.4864,0.033 1.01704,0.0488 1.61914,0.0488 0.7267,0 1.55748,-0.0253 2.52148,-0.0723 l 1.4375,-0.11914 c 0.3574,-0.03 0.72132,-0.0611 1.07422,-0.11719 l 1.56836,-0.22656 c 0.1602,-0.022 0.32249,-0.0471 0.49609,-0.0801 l 2.1543,-0.4375 c 0.3248,-0.074 0.64977,-0.16009 0.98047,-0.24609 l 0.49805,-0.12891 c 0.777,-0.1839 1.55471,-0.4333 2.34961,-0.6914 l 0.77929,-0.25196 c 0.3827,-0.1186 0.75897,-0.26335 1.13867,-0.41015 l 0.75391,-0.28711 c 0.4612,-0.175 0.92428,-0.35449 1.36328,-0.55469 0.5338,-0.2314 1.07217,-0.4642 1.63867,-0.7207 0.3559,-0.1706 0.71096,-0.34935 1.06836,-0.52735 L 482.02344,295 c 2.4068,-1.2353 4.51891,-2.50947 6.44531,-3.88867 l 2,-1.46485 c 0.3767,-0.2847 0.75239,-0.5695 1.11719,-0.875 l 1.46094,-1.2246 c 0.3337,-0.27581 0.6519,-0.56763 0.9707,-0.86133 l 2.38476,-2.28125 c 0.2996,-0.2996 0.60034,-0.59967 0.89844,-0.91407 0.9803,-1.0529 1.79166,-1.94583 2.53906,-2.86523 0.6836,-0.783 1.30325,-1.60458 1.90235,-2.39648 l 1.53125,-2.12891 1.98242,-3.07617 c 0.2981,-0.5101 0.58985,-1.01969 0.87305,-1.52539 l 1.59375,-3.03711 c 0.1543,-0.3263 0.30196,-0.65076 0.44726,-0.97266 l 0.45313,-0.99609 c 0.1557,-0.3367 0.30763,-0.67084 0.42773,-0.99414 l 1.07422,-2.79883 c 0.5754,-1.6239 1.08503,-3.32 1.51953,-5.0625 l 0.17188,-0.74219 c 0.1113,-0.479 0.2185,-0.9356 0.3164,-1.4043 l 0.31641,-1.80078 0.2793,-2.56836 7.90429,-0.90234 -7.6914,-1.04492 0.79297,-7.30274 -2.58985,7.0625 -0.25195,-0.0352 c -0.5442,-0.071 -1.29029,-0.16917 -2.15039,-0.19727 -1.0781,-0.082 -2.38528,-0.0876 -4.14258,-0.0156 l -1.39844,0.10156 c -0.3692,0.028 -0.74893,0.0581 -1.11523,0.11133 l -1.5586,0.21094 c -0.1676,0.022 -0.33676,0.0442 -0.50586,0.0762 l -2.16406,0.41797 c -0.3262,0.073 -0.64977,0.15668 -0.98047,0.23828 l -0.49609,0.12304 c -0.7652,0.1736 -1.52905,0.41201 -2.31055,0.65821 l -0.83398,0.25976 c -0.3871,0.1202 -0.76825,0.26095 -1.15235,0.40625 l -0.66015,0.2461 c -0.4879,0.181 -0.98157,0.36316 -1.44727,0.57226 -0.5368,0.2254 -1.0783,0.45584 -1.6582,0.71094 l -1.88477,0.91797 c -0.1913,0.092 -0.38112,0.18482 -0.64062,0.32422 l -1.5332,0.8457 c -0.2877,0.1587 -0.5764,0.31873 -0.8418,0.48633 l -1.5957,0.97656 c -0.3589,0.2239 -0.7071,0.46328 -1.0586,0.70508 l -2.56055,1.82812 c -0.3767,0.2788 -0.75392,0.55692 -1.11132,0.85352 l -1.47657,1.21875 c -0.3307,0.2729 -0.65235,0.55996 -0.97265,0.84766 l -2.39453,2.25585 c -0.307,0.301 -0.61352,0.60207 -0.91602,0.91797 -0.439,0.4656 -0.87923,0.93233 -1.29883,1.39063 -0.2314,0.2447 -0.45255,0.49895 -0.66015,0.74805 l -0.59961,0.70117 c -0.6777,0.7623 -1.29157,1.56128 -1.88477,2.33398 l -1.68945,2.31055 c -0.1453,0.2046 -0.29011,0.40696 -0.44141,0.63086 l -0.81054,1.25976 c -0.2165,0.3366 -0.43135,0.66904 -0.65235,1.02344 -0.3025,0.5087 -0.59706,1.01488 -0.88476,1.51758 l -2.52735,4.9668 c -0.1617,0.3411 -0.32081,0.67966 -0.44531,1.00586 l -1.0957,2.78906 c -0.5932,1.6224 -1.11851,3.31568 -1.56641,5.05078 l -0.18359,0.75391 c -0.1156,0.4731 -0.22492,0.92161 -0.32422,1.38281 l -0.33399,1.79687 -0.36914,3.11719 -5.31054,0.6582 c 0.067,-0.1513 0.13011,-0.29401 0.19531,-0.44531 1.6224,-3.6896 3.29832,-7.50715 4.9414,-11.71875 1.51561,-3.8973 2.63469,-7.16927 3.52149,-10.29687 0.5502,-1.9175 1.00878,-3.82081 1.36328,-5.65821 0.4063,-2.0865 0.68542,-4.05039 0.85742,-5.99609 0.1943,-2.2274 0.23711,-4.28974 0.12891,-6.30664 -0.1187,-2.2289 -0.42234,-4.41072 -0.89844,-6.48242 -0.9743,-4.3214 -2.89842,-8.59772 -5.57812,-12.38672 l -0.33204,-0.45703 c -0.2239,-0.3085 -0.44966,-0.6187 -0.69726,-0.9375 l -1.07031,-1.31641 c -0.015,-0.021 -0.0295,-0.0421 -0.20117,-0.23437 l -0.98243,-1.08399 c -0.3263,-0.3292 -0.66626,-0.65908 -1.00586,-0.98828 l -0.30468,-0.29492 c -1.394,-1.2783 -2.93112,-2.42906 -4.57422,-3.44336 l -0.22461,-1.60352 c -0.4716,-2.7791 -1.12567,-5.46905 -1.94727,-8.00195 -0.9076,-2.7361 -2.02752,-5.38364 -3.32812,-7.86914 -1.3584,-2.6234 -2.9966,-5.11505 -4.8711,-7.40625 -2.1177,-2.5789 -4.29725,-4.64537 -6.62695,-6.29297 -0.4939,-0.3841 -1.01774,-0.70472 -1.52344,-1.01172 l -1.03515,-0.63086 -2.58399,-1.27734 -3.28515,-1.25195 c -2.7435,-0.8957 -5.68328,-1.47061 -8.98438,-1.75391 -1.4281,-0.1253 -2.89724,-0.17508 -4.39844,-0.15039 z m 20.13086,38.05469 c 1.02831,-0.013 2.04876,0.0224 3.05274,0.10547 3.8795,0.3204 7.60607,1.37215 10.86719,3.00195 0.056,0.5517 0.10257,1.10173 0.14257,1.64453 l 0.004,0.002 0.0664,0.89258 c 0.021,0.2121 0.0233,0.42667 0.0273,0.63867 l 0.0332,1.56641 c 0.01,0.3797 0.021,0.75538 0,1.16015 l -0.22851,3.94727 c -0.028,0.3367 -0.0537,0.66848 -0.0937,0.98438 l -0.34571,2.39453 c -0.025,0.1513 -0.0568,0.30092 -0.0898,0.44922 l -0.36914,1.82031 c -0.8112,3.6704 -2.05403,7.18977 -3.70313,10.48047 l -0.58593,1.02539 c 0.064,-1.7365 -0.0908,-3.45042 -0.5,-5.07422 -0.2551,-0.9921 -0.57879,-1.92037 -0.96289,-2.75977 -0.3959,-0.8586 -0.87055,-1.69266 -1.43555,-2.50976 l -0.12109,-0.16406 c -0.2388,-0.3218 -0.47932,-0.64203 -0.72852,-0.92383 l -0.58984,-0.65821 c -0.1156,-0.1231 -0.23427,-0.24618 -0.36329,-0.36328 -0.3648,-0.3515 -0.72355,-0.65208 -1.12695,-0.95898 l -0.17383,-0.125 c -0.1246,-0.092 -0.2499,-0.18158 -0.3789,-0.26758 l -0.58203,-0.36914 c -1.4949,-0.8853 -3.17604,-1.46511 -4.99414,-1.72461 -0.8023,-0.1172 -1.64584,-0.15947 -2.49415,-0.13867 -0.86459,0.027 -1.64104,0.10478 -2.36914,0.23828 -1.4682,0.2595 -2.90381,0.71108 -4.25781,1.33398 -1.1967,0.5383 -2.38371,1.25173 -3.50781,2.10743 -0.1824,0.1305 -0.35524,0.27316 -0.52734,0.41406 l -0.25586,0.21094 c -0.1735,0.1468 -0.3315,0.2892 -0.4961,0.4375 l -0.23242,0.20898 c -0.5116,0.4894 -0.94169,0.94049 -1.27539,1.33789 -0.7534,0.8898 -1.40461,1.86379 -1.94141,2.90039 -0.5013,0.9922 -0.88079,1.97623 -1.12109,2.92383 -0.2328,0.9105 -0.36779,1.83605 -0.40039,2.74805 -0.07,1.922 0.34289,3.42729 0.69726,4.33789 0.4108,1.0944 0.92964,1.85999 1.33594,2.40429 0.1898,0.2536 0.34692,0.43463 0.44922,0.54883 l 0.14063,0.16016 1.62109,-1.33594 -0.13086,-0.17383 c -0.073,-0.093 -0.18109,-0.23294 -0.30859,-0.43164 -0.2803,-0.436 -0.63726,-1.04829 -0.91016,-1.93359 -0.2328,-0.7296 -0.48033,-1.9125 -0.33203,-3.4043 0.1053,-1.0618 0.44837,-2.6976 1.48047,-4.4668 0.4731,-0.8082 1.04236,-1.56535 1.69336,-2.25195 0.3441,-0.3693 0.69797,-0.69033 1.07617,-1.01953 l 0.25391,-0.20312 c 0.1261,-0.10231 0.25648,-0.20701 0.36328,-0.28711 l 0.26757,-0.19727 c 0.1275,-0.096 0.25627,-0.19112 0.41797,-0.29492 2.0094,-1.3659 4.23866,-2.23965 6.43946,-2.52735 1.3065,-0.1632 2.55423,-0.13746 3.71093,0.082 1.3065,0.2447 2.48883,0.70987 3.48243,1.35937 l 0.78711,0.58008 c 0.2462,0.2061 0.49154,0.422 0.74804,0.6875 0.065,0.059 0.13869,0.14597 0.21289,0.23047 l 0.42578,0.50781 c 0.172,0.2076 0.32432,0.43375 0.47852,0.65625 l 0.10547,0.15039 c 0.3811,0.5977 0.71001,1.22763 0.97851,1.86524 0.2565,0.614 0.47017,1.30523 0.63477,2.05273 0.6199,2.8636 0.24686,6.08438 -1.05664,9.08008 -0.2788,0.6628 -0.63755,1.36282 -1.12695,2.19922 -0.4048,0.6881 -0.8843,1.38262 -1.4375,2.07812 -0.1987,0.2625 -0.41436,0.51011 -0.63086,0.75781 l -0.35352,0.39258 c -0.2284,0.2447 -0.45838,0.49076 -0.70898,0.72656 l -1.34375,1.19922 c -0.2106,0.1735 -0.41791,0.34945 -0.65821,0.52735 -2.9481,2.2764 -6.33248,3.84214 -9.77148,4.52734 -1.0055,0.1868 -1.89802,0.30357 -2.72852,0.35547 -0.9817,0.056 -1.88003,0.0524 -2.74023,-0.0156 -0.9268,-0.08 -1.83807,-0.22589 -2.70117,-0.43359 -0.8467,-0.2046 -1.70961,-0.50047 -2.53711,-0.85937 l -0.27149,-0.12305 c -0.1142,-0.05 -0.2301,-0.0998 -0.3457,-0.16211 l -0.72656,-0.38672 c -0.3456,-0.2032 -0.68966,-0.40614 -1.03516,-0.65234 l -0.70898,-0.52344 c -0.1097,-0.083 -0.22125,-0.16419 -0.33985,-0.27539 l -0.21289,-0.18164 c -0.1053,-0.091 -0.21137,-0.18221 -0.29297,-0.25781 l -1.17382,-1.22266 -0.41016,-0.50781 c -0.092,-0.1127 -0.18421,-0.22636 -0.25391,-0.31836 l -0.42578,-0.60156 -1.17383,-1.94727 -0.8164,-1.82031 -0.60352,-1.82422 c -0.083,-0.2996 -0.16771,-0.59568 -0.22851,-0.92188 l -0.2793,-1.49023 c -0.04,-0.2076 -0.0618,-0.41768 -0.0898,-0.67578 l -0.0332,-0.29102 c -0.018,-0.1483 -0.0349,-0.29891 -0.0449,-0.41601 l -0.0293,-0.50782 c -0.021,-0.3233 -0.0441,-0.64823 -0.0391,-1.02343 -0.031,-1.0143 0.0557,-2.07174 0.14063,-2.95703 0.2447,-2.0451 0.71247,-4.03375 1.38867,-5.90235 0.7178,-1.962 1.62075,-3.82817 2.68555,-5.54687 1.093,-1.7529 2.37346,-3.41173 3.82226,-4.95704 0.1231,-0.1423 0.25131,-0.26853 0.37891,-0.39453 l 1.79297,-1.71093 -0.17383,-0.19141 0.17773,0.18945 0.0332,-0.0312 2.48242,-1.99023 c 3.4257,-2.521 7.2118,-4.39 11.25,-5.5586 3.0453,-0.87862 6.2061,-1.34762 9.29101,-1.38671 z m 83.29102,20.21289 -1.18164,3.17382 -1.79297,4.09766 c -0.2283,0.522 -0.49523,1.05095 -0.76953,1.59375 l -1.68945,3.22461 c -0.138,0.267 -0.29202,0.52952 -0.44922,0.79492 l -0.54297,0.92969 c -0.1631,0.2818 -0.32714,0.56744 -0.49024,0.83594 l -1.70507,2.66406 c -0.31151,0.4553 -0.62546,0.91801 -0.91016,1.34961 l -4.17578,5.41797 c -0.2818,0.3559 -0.58422,0.69405 -0.88672,1.03515 l -1.39844,1.55079 c -0.4182,0.4316 -0.83097,0.87263 -1.23437,1.30273 -0.2595,0.2684 -0.52848,0.53047 -0.79688,0.79297 l -1.75781,1.67773 c -1.5215,1.44 -3.29414,2.91666 -5.39844,4.50196 l -0.5293,0.39062 c -0.2892,0.2165 -0.5793,0.43202 -0.8789,0.63672 l -1.44336,0.99609 c -0.2877,0.1988 -0.5814,0.38206 -0.875,0.56446 l -1.25586,0.79492 c -0.1468,0.092 -0.29551,0.17962 -0.44531,0.26562 l -0.27539,0.16016 c -1.9576,1.1879 -3.96448,2.16232 -5.63868,2.94531 l -0.64062,0.2793 c -0.7074,0.3085 -1.40002,0.61309 -2.10742,0.87109 l -0.50196,0.19727 c -0.2774,0.1082 -0.55004,0.21669 -0.80664,0.30859 l -1.95507,0.66407 c -0.1216,0.042 -0.24559,0.0756 -0.36719,0.10937 l -1.48438,0.43359 c -0.2862,0.093 -0.57126,0.16172 -0.85156,0.22852 l -1.3457,0.33203 c -1.6668,0.3648 -2.81494,0.58334 -3.74024,0.71094 l -1.97265,0.24414 1.4082,-3.67383 1.83008,-4.08398 c 0.2373,-0.5294 0.51413,-1.06594 0.79883,-1.61914 l 1.70312,-3.17774 c 0.1468,-0.2729 0.30956,-0.54351 0.47266,-0.8164 l 2.75976,-4.38086 c 0.3159,-0.4523 0.63278,-0.9117 0.92188,-1.3418 l 0.99609,-1.35547 3.22266,-4.02734 c 0.31,-0.3841 0.64286,-0.7519 0.97656,-1.1211 l 0.75781,-0.83593 c 0.1809,-0.20621 0.36712,-0.40963 0.57032,-0.61133 0.4226,-0.4286 0.8407,-0.8648 1.25,-1.29493 0.2581,-0.26539 0.52606,-0.52084 0.79296,-0.77734 l 1.7793,-1.67187 c 1.5364,-1.4325 3.26697,-2.85334 5.4336,-4.46094 l 0.51757,-0.375 c 0.2981,-0.2165 0.59549,-0.43407 0.89649,-0.63867 l 1.46289,-0.99024 c 0.2195,-0.1543 0.44793,-0.29419 0.67773,-0.43359 l 1.46289,-0.9082 c 0.1394,-0.088 0.28394,-0.1684 0.42774,-0.25 l 1.68164,-0.96094 c 0.4983,-0.2521 0.98949,-0.50989 1.49219,-0.77539 0.396,-0.218 0.80077,-0.40695 1.20117,-0.59375 l 1.13672,-0.53516 c 0.1379,-0.067 0.27684,-0.13356 0.43554,-0.19726 l 0.69532,-0.29493 c 0.6911,-0.2951 1.37045,-0.58537 2.06445,-0.83007 l 0.49414,-0.18946 c 0.2818,-0.1082 0.55981,-0.21418 0.81641,-0.30469 l 1.32226,-0.43359 c 1.8048,-0.5947 3.46741,-0.99704 4.69531,-1.27734 1.6609,-0.3485 2.81075,-0.55614 3.74805,-0.67774 z m 0.60156,68.45117 3.98633,0.12305 c 0.3619,0.01 0.72309,0.0517 1.08789,0.0937 l 1.48242,0.16406 c 0.2492,0.027 0.49817,0.0513 0.76367,0.10156 l 0.80469,0.13281 c 0.5369,0.087 1.08648,0.18377 1.64258,0.28907 1.3406,3.4168 2.05704,7.25338 2.02734,11.17578 -0.031,4.0886 -0.82784,8.18654 -2.37304,12.18164 -1.5201,3.924 -3.71486,7.53193 -6.50586,10.70703 l -2.26563,2.36914 -0.73633,0.67383 c -0.1261,0.1157 -0.25498,0.23322 -0.36328,0.32812 l -0.72656,0.60547 c -0.1424,0.1216 -0.28349,0.24195 -0.46289,0.37695 -1.6417,1.2902 -3.40483,2.41877 -5.23633,3.35157 -1.8137,0.9135 -3.75281,1.64965 -5.75781,2.18945 -1.9294,0.5101 -3.94794,0.80098 -5.96484,0.86328 l -0.78321,0 -0.34375,0 -1.91601,-0.12891 c -0.3114,-0.024 -0.61924,-0.0724 -0.92774,-0.12109 l -1.22851,-0.21875 -2.11914,-0.56055 -2.02344,-0.77929 -1.90039,-0.99219 -1.76172,-1.20313 -1.91992,-1.70898 -0.43946,-0.47852 c -0.058,-0.062 -0.11689,-0.12343 -0.18359,-0.21093 l -0.83594,-1.09571 c -0.071,-0.095 -0.13301,-0.19597 -0.19531,-0.29687 l -0.48828,-0.80664 c -0.4508,-0.8008 -0.81649,-1.62468 -1.08789,-2.45508 -0.2877,-0.8735 -0.50137,-1.76231 -0.63477,-2.63281 -0.1261,-0.8779 -0.189,-1.79826 -0.1875,-2.72656 0.01,-0.8527 0.0831,-1.74919 0.22852,-2.73829 0.1216,-0.8112 0.31602,-1.69153 0.59179,-2.67773 0.9862,-3.3797 2.84151,-6.61325 5.37891,-9.37305 0.1809,-0.2046 0.3712,-0.39704 0.5625,-0.58984 l 0.33985,-0.3457 c 0.062,-0.059 0.0971,-0.0991 0.11328,-0.11719 -0.01,0.01 -0.0106,0.0144 -0.0176,0.0254 l 0.89453,-0.81445 c 0.2418,-0.2165 0.50849,-0.42417 0.77539,-0.63477 l 0.41406,-0.3125 c 0.2654,-0.1943 0.53212,-0.38892 0.82422,-0.57422 0.7282,-0.4805 1.45958,-0.89868 2.17578,-1.23828 0.878,-0.4167 1.60428,-0.71259 2.29688,-0.93359 3.0831,-1.0336 6.32183,-1.12005 9.11133,-0.24805 0.7252,0.2298 1.39417,0.50455 1.98437,0.81445 0.6184,0.3307 1.21328,0.7148 1.73828,1.1211 l 0.14844,0.12304 c 0.218,0.1809 0.43675,0.36013 0.65625,0.57813 l 0.23828,0.22656 0,0.002 0.18164,0.19532 c 0.088,0.092 0.17794,0.18249 0.27735,0.30859 0.1972,0.2269 0.39012,0.4923 0.54882,0.7207 l 0.12305,0.18946 c 0.05,0.076 0.10157,0.14863 0.13867,0.21093 l 0.25391,0.44727 c 0.571,1.0722 0.92419,2.28985 1.05469,3.62305 0.061,0.5977 0.0675,1.22364 0.0195,1.86132 -0.05,0.68071 -0.1377,1.27834 -0.26367,1.83594 -0.48051,2.174 -1.54128,4.31718 -3.07618,6.20508 -0.3456,0.4271 -0.71408,0.82142 -1.05078,1.16992 l -0.19531,0.18946 c -0.1231,0.1186 -0.24818,0.24464 -0.39649,0.36914 -0.17939,0.1647 -0.37019,0.321 -0.55859,0.4707 -0.7311,0.5828 -1.53359,1.08488 -2.37891,1.48828 -1.8537,0.8779 -3.51147,1.07599 -4.57617,1.08789 -1.4801,0 -2.65238,-0.32976 -3.36718,-0.63086 -0.8616,-0.3529 -1.45831,-0.78348 -1.83789,-1.08008 -0.1824,-0.1424 -0.31271,-0.26205 -0.41211,-0.35547 l -0.14454,-0.13085 -1.48437,1.48437 0.14648,0.15625 c 0.1113,0.1186 0.27498,0.29226 0.51368,0.50586 0.5042,0.4523 1.21911,1.03441 2.26171,1.53711 0.8898,0.4405 2.35259,0.98413 4.27149,1.08203 0.9091,0.046 1.84468,-0.01 2.77148,-0.16016 0.9714,-0.1586 1.98443,-0.45094 3.01953,-0.86914 1.0781,-0.4449 2.10378,-1.01029 3.04688,-1.68359 0.2507,-0.1794 0.50071,-0.36493 0.72461,-0.54883 0.1883,-0.1453 0.34607,-0.28439 0.51367,-0.42969 l 0.22852,-0.20117 c 0.4582,-0.4242 0.91706,-0.86966 1.35156,-1.35156 0.9639,-1.0648 1.77741,-2.18477 2.41211,-3.32227 0.7415,-1.2991 1.31212,-2.6894 1.69922,-4.125 0.1972,-0.7192 0.34291,-1.4856 0.44531,-2.3457 0.099,-0.8483 0.12753,-1.68643 0.082,-2.49023 -0.095,-1.8388 -0.52158,-3.56431 -1.26758,-5.12891 -0.065,-0.1364 -0.13538,-0.27366 -0.20508,-0.41016 l -0.10156,-0.19336 c -0.074,-0.1394 -0.15528,-0.27766 -0.23828,-0.41406 l -0.12305,-0.20703 c -0.2491,-0.4019 -0.5174,-0.7865 -0.8125,-1.1543 -0.1349,-0.1794 -0.25637,-0.31746 -0.45507,-0.54296 l -0.48047,-0.51368 c -0.2922,-0.3084 -0.6118,-0.5941 -0.9336,-0.8789 l -0.11523,-0.10157 c -0.7326,-0.6125 -1.5226,-1.16417 -2.3457,-1.63867 -0.8052,-0.4597 -1.69971,-0.86443 -2.66211,-1.20703 -1.6195,-0.5679 -3.35758,-0.87693 -5.13868,-0.95703 l 0.0996,-0.0488 1.11914,-0.45703 c 3.4005,-1.3495 7.01481,-2.28062 10.72071,-2.76562 l 1.85351,-0.20899 0,0.004 c 0.1513,-0.019 0.30396,-0.0389 0.44336,-0.0469 l 2.41406,-0.13476 c 0.3352,-0.012 0.67021,-0.0117 1.00391,-0.0117 z"
         clip-path="none"
         style="display:inline;fill:#2b2b2a;fill-opacity:1;fill-rule:nonzero;stroke:none" />
    </g>
  </g>
</svg>
